<svg xmlns="http://www.w3.org/2000/svg" viewBox="0 0 512 512" width="512" height="512">
  <defs>
    <radialGradient id="bg" cx="50%" cy="40%" r="60%">
      <stop offset="0%" stop-color="#1a1a2e"/>
      <stop offset="100%" stop-color="#0a0a14"/>
    </radialGradient>
  </defs>
  <rect width="512" height="512" fill="url(#bg)"/>
  <!-- Broader male head -->
  <ellipse cx="256" cy="180" rx="74" ry="80" fill="#111118" stroke="#333" stroke-width="2"/>
  <!-- Broader shoulders -->
  <path d="M130,380 Q140,280 256,268 Q372,280 382,380 L382,512 L130,512 Z" fill="#111118" stroke="#333" stroke-width="2"/>
  <!-- Chef hat silhouette -->
  <path d="M206,110 Q206,55 256,50 Q306,55 306,110 L310,118 L202,118 Z" fill="#1a1a24" stroke="#2a2a3a" stroke-width="1.5"/>
  <rect x="200" y="118" width="112" height="14" rx="2" fill="#1a1a24" stroke="#2a2a3a" stroke-width="1"/>
  <!-- Neutral expression -->
  <line x1="230" y1="220" x2="282" y2="220" stroke="#2a2a3a" stroke-width="2" stroke-linecap="round"/>
  <ellipse cx="232" cy="178" rx="8" ry="4" fill="#2a2a3a"/>
  <ellipse cx="280" cy="178" rx="8" ry="4" fill="#2a2a3a"/>
  <text x="256" y="480" text-anchor="middle" fill="#444" font-family="Courier New,monospace" font-size="14" letter-spacing="4">HUGO DELMAR</text>
  <text x="256" y="498" text-anchor="middle" fill="#333" font-family="Courier New,monospace" font-size="10" letter-spacing="2">NEUTRAL</text>
</svg>
