<svg xmlns="http://www.w3.org/2000/svg" viewBox="0 0 512 512" width="512" height="512">
  <defs>
    <radialGradient id="bg" cx="50%" cy="40%" r="60%">
      <stop offset="0%" stop-color="#1a1a2e"/>
      <stop offset="100%" stop-color="#0a0a14"/>
    </radialGradient>
  </defs>
  <rect width="512" height="512" fill="url(#bg)"/>
  <ellipse cx="256" cy="180" rx="74" ry="80" fill="#111118" stroke="#333" stroke-width="2"/>
  <path d="M130,380 Q140,280 256,268 Q372,280 382,380 L382,512 L130,512 Z" fill="#111118" stroke="#333" stroke-width="2"/>
  <path d="M206,110 Q206,55 256,50 Q306,55 306,110 L310,118 L202,118 Z" fill="#1a1a24" stroke="#2a2a3a" stroke-width="1.5"/>
  <rect x="200" y="118" width="112" height="14" rx="2" fill="#1a1a24" stroke="#2a2a3a" stroke-width="1"/>
  <!-- Talking: open mouth -->
  <ellipse cx="256" cy="224" rx="16" ry="11" fill="#0a0a12" stroke="#2a2a3a" stroke-width="2"/>
  <ellipse cx="232" cy="178" rx="9" ry="5" fill="#2a2a3a"/>
  <ellipse cx="280" cy="178" rx="9" ry="5" fill="#2a2a3a"/>
  <line x1="302" y1="200" x2="324" y2="192" stroke="#3a3a5a" stroke-width="1" opacity="0.6"/>
  <line x1="306" y1="210" x2="330" y2="206" stroke="#3a3a5a" stroke-width="1" opacity="0.4"/>
  <line x1="304" y1="220" x2="326" y2="218" stroke="#3a3a5a" stroke-width="1" opacity="0.3"/>
  <text x="256" y="480" text-anchor="middle" fill="#444" font-family="Courier New,monospace" font-size="14" letter-spacing="4">HUGO DELMAR</text>
  <text x="256" y="498" text-anchor="middle" fill="#3a3a6a" font-family="Courier New,monospace" font-size="10" letter-spacing="2">HABLANDO</text>
</svg>
