<svg xmlns="http://www.w3.org/2000/svg" viewBox="0 0 512 512" width="512" height="512">
  <defs>
    <radialGradient id="bg" cx="50%" cy="40%" r="60%">
      <stop offset="0%" stop-color="#2a1a1a"/>
      <stop offset="100%" stop-color="#140a0a"/>
    </radialGradient>
  </defs>
  <rect width="512" height="512" fill="url(#bg)"/>
  <ellipse cx="256" cy="180" rx="74" ry="80" fill="#181014" stroke="#4a2020" stroke-width="2"/>
  <path d="M130,380 Q140,280 256,268 Q372,280 382,380 L382,512 L130,512 Z" fill="#181014" stroke="#4a2020" stroke-width="2"/>
  <path d="M206,110 Q206,55 256,50 Q306,55 306,110 L310,118 L202,118 Z" fill="#1a1018" stroke="#3a1a2a" stroke-width="1.5"/>
  <rect x="200" y="118" width="112" height="14" rx="2" fill="#1a1018" stroke="#3a1a2a" stroke-width="1"/>
  <!-- Nervous: clenched teeth -->
  <rect x="236" y="216" width="40" height="12" rx="2" fill="#0a0a08" stroke="#4a2a2a" stroke-width="2"/>
  <line x1="248" y1="216" x2="248" y2="228" stroke="#4a2a2a" stroke-width="1"/>
  <line x1="256" y1="216" x2="256" y2="228" stroke="#4a2a2a" stroke-width="1"/>
  <line x1="264" y1="216" x2="264" y2="228" stroke="#4a2a2a" stroke-width="1"/>
  <!-- Very wide panicked eyes -->
  <ellipse cx="232" cy="174" rx="12" ry="9" fill="#2a1a1a" stroke="#4a2020" stroke-width="1.5"/>
  <ellipse cx="280" cy="174" rx="12" ry="9" fill="#2a1a1a" stroke="#4a2020" stroke-width="1.5"/>
  <circle cx="232" cy="174" r="4" fill="#5a2020"/>
  <circle cx="280" cy="174" r="4" fill="#5a2020"/>
  <!-- Angry/panicked brows -->
  <line x1="216" y1="158" x2="242" y2="162" stroke="#5a2a2a" stroke-width="3" stroke-linecap="round"/>
  <line x1="296" y1="158" x2="270" y2="162" stroke="#5a2a2a" stroke-width="3" stroke-linecap="round"/>
  <!-- Heavy sweat -->
  <ellipse cx="322" cy="165" rx="4" ry="7" fill="none" stroke="#3a3a5a" stroke-width="1.5" opacity="0.6"/>
  <ellipse cx="332" cy="185" rx="3" ry="5" fill="none" stroke="#3a3a5a" stroke-width="1" opacity="0.4"/>
  <ellipse cx="326" cy="200" rx="2" ry="4" fill="none" stroke="#3a3a5a" stroke-width="1" opacity="0.3"/>
  <text x="256" y="480" text-anchor="middle" fill="#6a3030" font-family="Courier New,monospace" font-size="14" letter-spacing="4">HUGO DELMAR</text>
  <text x="256" y="498" text-anchor="middle" fill="#5a2020" font-family="Courier New,monospace" font-size="10" letter-spacing="2">NERVIOSO</text>
</svg>
