<svg xmlns="http://www.w3.org/2000/svg" viewBox="0 0 512 512" width="512" height="512">
  <defs>
    <radialGradient id="bg" cx="50%" cy="40%" r="60%">
      <stop offset="0%" stop-color="#2a1a1a"/>
      <stop offset="100%" stop-color="#140a0a"/>
    </radialGradient>
  </defs>
  <rect width="512" height="512" fill="url(#bg)"/>
  <ellipse cx="256" cy="180" rx="68" ry="78" fill="#181014" stroke="#4a2020" stroke-width="2"/>
  <path d="M145,380 Q152,290 256,275 Q360,290 367,380 L367,512 L145,512 Z" fill="#181014" stroke="#4a2020" stroke-width="2"/>
  <path d="M180,170 Q178,90 256,75 Q334,90 332,170 Q336,120 324,95 Q298,62 256,58 Q214,62 188,95 Q176,120 180,170 Z" fill="#120a0e" stroke="#3a1a2a" stroke-width="1"/>
  <path d="M180,170 Q175,220 178,260 L192,260 Q190,220 188,170 Z" fill="#120a0e" stroke="none"/>
  <path d="M332,170 Q337,220 334,260 L320,260 Q322,220 324,170 Z" fill="#120a0e" stroke="none"/>
  <!-- Nervous tight mouth -->
  <path d="M236,222 Q256,228 276,222" fill="none" stroke="#4a2a2a" stroke-width="2" stroke-linecap="round"/>
  <!-- Wide eyes with pupils -->
  <ellipse cx="232" cy="174" rx="10" ry="7" fill="#2a1a1a" stroke="#4a2020" stroke-width="1"/>
  <ellipse cx="280" cy="174" rx="10" ry="7" fill="#2a1a1a" stroke="#4a2020" stroke-width="1"/>
  <circle cx="232" cy="174" r="3" fill="#4a2020"/>
  <circle cx="280" cy="174" r="3" fill="#4a2020"/>
  <!-- Furrowed brows -->
  <line x1="220" y1="160" x2="242" y2="163" stroke="#4a2a2a" stroke-width="2" stroke-linecap="round"/>
  <line x1="292" y1="160" x2="270" y2="163" stroke="#4a2a2a" stroke-width="2" stroke-linecap="round"/>
  <!-- Tear drop -->
  <path d="M296,188 Q298,195 296,200 Q294,195 296,188 Z" fill="#3a3a5a" opacity="0.4"/>
  <text x="256" y="480" text-anchor="middle" fill="#6a3030" font-family="Courier New,monospace" font-size="14" letter-spacing="4">LUCÍA VARELA</text>
  <text x="256" y="498" text-anchor="middle" fill="#5a2020" font-family="Courier New,monospace" font-size="10" letter-spacing="2">NERVIOSA</text>
</svg>
