<svg xmlns="http://www.w3.org/2000/svg" viewBox="0 0 512 512" width="512" height="512">
  <defs>
    <radialGradient id="bg" cx="50%" cy="40%" r="60%">
      <stop offset="0%" stop-color="#1a1a2e"/>
      <stop offset="100%" stop-color="#0a0a14"/>
    </radialGradient>
  </defs>
  <rect width="512" height="512" fill="url(#bg)"/>
  <ellipse cx="256" cy="180" rx="68" ry="78" fill="#111118" stroke="#333" stroke-width="2"/>
  <path d="M145,380 Q152,290 256,275 Q360,290 367,380 L367,512 L145,512 Z" fill="#111118" stroke="#333" stroke-width="2"/>
  <path d="M180,170 Q178,90 256,75 Q334,90 332,170 Q336,120 324,95 Q298,62 256,58 Q214,62 188,95 Q176,120 180,170 Z" fill="#0d0d16" stroke="#2a2a3a" stroke-width="1"/>
  <path d="M180,170 Q175,220 178,260 L192,260 Q190,220 188,170 Z" fill="#0d0d16" stroke="none"/>
  <path d="M332,170 Q337,220 334,260 L320,260 Q322,220 324,170 Z" fill="#0d0d16" stroke="none"/>
  <!-- Talking: open mouth -->
  <ellipse cx="256" cy="222" rx="14" ry="9" fill="#0a0a12" stroke="#2a2a3a" stroke-width="2"/>
  <ellipse cx="232" cy="176" rx="9" ry="5" fill="#2a2a3a"/>
  <ellipse cx="280" cy="176" rx="9" ry="5" fill="#2a2a3a"/>
  <line x1="298" y1="198" x2="316" y2="190" stroke="#3a3a5a" stroke-width="1" opacity="0.6"/>
  <line x1="302" y1="208" x2="322" y2="204" stroke="#3a3a5a" stroke-width="1" opacity="0.4"/>
  <text x="256" y="480" text-anchor="middle" fill="#444" font-family="Courier New,monospace" font-size="14" letter-spacing="4">LUCÍA VARELA</text>
  <text x="256" y="498" text-anchor="middle" fill="#3a3a6a" font-family="Courier New,monospace" font-size="10" letter-spacing="2">HABLANDO</text>
</svg>
