<svg xmlns="http://www.w3.org/2000/svg" viewBox="0 0 512 512" width="512" height="512">
  <defs>
    <radialGradient id="bg" cx="50%" cy="40%" r="60%">
      <stop offset="0%" stop-color="#1a1a2e"/>
      <stop offset="100%" stop-color="#0a0a14"/>
    </radialGradient>
  </defs>
  <rect width="512" height="512" fill="url(#bg)"/>
  <ellipse cx="256" cy="180" rx="72" ry="82" fill="#111118" stroke="#333" stroke-width="2"/>
  <path d="M140,380 Q148,290 256,280 Q364,290 372,380 L372,512 L140,512 Z" fill="#111118" stroke="#333" stroke-width="2"/>
  <path d="M184,160 Q184,90 256,80 Q328,90 328,160 Q330,130 320,110 Q295,75 256,72 Q217,75 192,110 Q182,130 184,160 Z" fill="#0d0d16" stroke="#2a2a3a" stroke-width="1"/>
  <!-- Talking: open mouth -->
  <ellipse cx="256" cy="224" rx="16" ry="10" fill="#0a0a12" stroke="#2a2a3a" stroke-width="2"/>
  <!-- Eyes slightly wider -->
  <ellipse cx="230" cy="178" rx="9" ry="5" fill="#2a2a3a"/>
  <ellipse cx="282" cy="178" rx="9" ry="5" fill="#2a2a3a"/>
  <!-- Speech lines -->
  <line x1="300" y1="200" x2="320" y2="190" stroke="#3a3a5a" stroke-width="1" opacity="0.6"/>
  <line x1="305" y1="210" x2="328" y2="205" stroke="#3a3a5a" stroke-width="1" opacity="0.4"/>
  <line x1="302" y1="220" x2="322" y2="218" stroke="#3a3a5a" stroke-width="1" opacity="0.3"/>
  <text x="256" y="480" text-anchor="middle" fill="#444" font-family="Courier New,monospace" font-size="14" letter-spacing="4">MARTA REQUENA</text>
  <text x="256" y="498" text-anchor="middle" fill="#3a3a6a" font-family="Courier New,monospace" font-size="10" letter-spacing="2">HABLANDO</text>
</svg>
