<svg xmlns="http://www.w3.org/2000/svg" viewBox="0 0 512 512" width="512" height="512">
  <defs>
    <radialGradient id="bg" cx="50%" cy="40%" r="60%">
      <stop offset="0%" stop-color="#2a1a1a"/>
      <stop offset="100%" stop-color="#140a0a"/>
    </radialGradient>
  </defs>
  <rect width="512" height="512" fill="url(#bg)"/>
  <ellipse cx="256" cy="180" rx="72" ry="82" fill="#181014" stroke="#4a2020" stroke-width="2"/>
  <path d="M140,380 Q148,290 256,280 Q364,290 372,380 L372,512 L140,512 Z" fill="#181014" stroke="#4a2020" stroke-width="2"/>
  <path d="M184,160 Q184,90 256,80 Q328,90 328,160 Q330,130 320,110 Q295,75 256,72 Q217,75 192,110 Q182,130 184,160 Z" fill="#120a0e" stroke="#3a1a2a" stroke-width="1"/>
  <!-- Nervous: tight mouth, furrowed brow -->
  <line x1="236" y1="224" x2="276" y2="222" stroke="#4a2a2a" stroke-width="2" stroke-linecap="round"/>
  <!-- Wide nervous eyes -->
  <ellipse cx="230" cy="176" rx="10" ry="7" fill="#2a1a1a" stroke="#4a2020" stroke-width="1"/>
  <ellipse cx="282" cy="176" rx="10" ry="7" fill="#2a1a1a" stroke="#4a2020" stroke-width="1"/>
  <circle cx="230" cy="176" r="3" fill="#4a2020"/>
  <circle cx="282" cy="176" r="3" fill="#4a2020"/>
  <!-- Furrowed brows -->
  <line x1="218" y1="162" x2="240" y2="166" stroke="#4a2a2a" stroke-width="2" stroke-linecap="round"/>
  <line x1="294" y1="162" x2="272" y2="166" stroke="#4a2a2a" stroke-width="2" stroke-linecap="round"/>
  <!-- Sweat drops -->
  <ellipse cx="320" cy="170" rx="3" ry="5" fill="none" stroke="#3a3a5a" stroke-width="1" opacity="0.5"/>
  <ellipse cx="328" cy="186" rx="2" ry="4" fill="none" stroke="#3a3a5a" stroke-width="1" opacity="0.3"/>
  <text x="256" y="480" text-anchor="middle" fill="#6a3030" font-family="Courier New,monospace" font-size="14" letter-spacing="4">MARTA REQUENA</text>
  <text x="256" y="498" text-anchor="middle" fill="#5a2020" font-family="Courier New,monospace" font-size="10" letter-spacing="2">NERVIOSA</text>
</svg>
