<svg xmlns="http://www.w3.org/2000/svg" viewBox="0 0 512 512" width="512" height="512">
  <defs>
    <radialGradient id="bg" cx="50%" cy="40%" r="60%">
      <stop offset="0%" stop-color="#1a1a2e"/>
      <stop offset="100%" stop-color="#0a0a14"/>
    </radialGradient>
  </defs>
  <rect width="512" height="512" fill="url(#bg)"/>
  <!-- Silhouette head -->
  <ellipse cx="256" cy="180" rx="72" ry="82" fill="#111118" stroke="#333" stroke-width="2"/>
  <!-- Shoulders -->
  <path d="M140,380 Q148,290 256,280 Q364,290 372,380 L372,512 L140,512 Z" fill="#111118" stroke="#333" stroke-width="2"/>
  <!-- Hair (short bob) -->
  <path d="M184,160 Q184,90 256,80 Q328,90 328,160 Q330,130 320,110 Q295,75 256,72 Q217,75 192,110 Q182,130 184,160 Z" fill="#0d0d16" stroke="#2a2a3a" stroke-width="1"/>
  <!-- Neutral expression line -->
  <line x1="228" y1="220" x2="284" y2="220" stroke="#2a2a3a" stroke-width="2" stroke-linecap="round"/>
  <!-- Eyes -->
  <ellipse cx="230" cy="178" rx="8" ry="4" fill="#2a2a3a"/>
  <ellipse cx="282" cy="178" rx="8" ry="4" fill="#2a2a3a"/>
  <!-- Label -->
  <text x="256" y="480" text-anchor="middle" fill="#444" font-family="Courier New,monospace" font-size="14" letter-spacing="4">MARTA REQUENA</text>
  <text x="256" y="498" text-anchor="middle" fill="#333" font-family="Courier New,monospace" font-size="10" letter-spacing="2">NEUTRAL</text>
</svg>
